<svg width="24" height="24" viewBox="0 0 24 24" fill="none" xmlns="http://www.w3.org/2000/svg">
<path d="M10.8333 19H13.1666V16.6667H10.8333V19ZM11.9999 0.333344C10.4678 0.333344 8.95074 0.635111 7.53528 1.22142C6.11981 1.80772 4.83369 2.66708 3.75034 3.75043C1.56242 5.93836 0.333252 8.90582 0.333252 12C0.333252 15.0942 1.56242 18.0617 3.75034 20.2496C4.83369 21.3329 6.11981 22.1923 7.53528 22.7786C8.95074 23.3649 10.4678 23.6667 11.9999 23.6667C15.0941 23.6667 18.0616 22.4375 20.2495 20.2496C22.4374 18.0617 23.6666 15.0942 23.6666 12C23.6666 10.4679 23.3648 8.95084 22.7785 7.53537C22.1922 6.1199 21.3328 4.83378 20.2495 3.75043C19.1661 2.66708 17.88 1.80772 16.4646 1.22142C15.0491 0.635111 13.532 0.333344 11.9999 0.333344ZM11.9999 21.3333C6.85492 21.3333 2.66659 17.145 2.66659 12C2.66659 6.85501 6.85492 2.66668 11.9999 2.66668C17.1449 2.66668 21.3333 6.85501 21.3333 12C21.3333 17.145 17.1449 21.3333 11.9999 21.3333ZM11.9999 5.00001C10.7622 5.00001 9.57526 5.49168 8.70009 6.36685C7.82492 7.24202 7.33325 8.429 7.33325 9.66668H9.66659C9.66659 9.04784 9.91242 8.45435 10.35 8.01676C10.7876 7.57918 11.3811 7.33334 11.9999 7.33334C12.6188 7.33334 13.2122 7.57918 13.6498 8.01676C14.0874 8.45435 14.3333 9.04784 14.3333 9.66668C14.3333 12 10.8333 11.7083 10.8333 15.5H13.1666C13.1666 12.875 16.6666 12.5833 16.6666 9.66668C16.6666 8.429 16.1749 7.24202 15.2998 6.36685C14.4246 5.49168 13.2376 5.00001 11.9999 5.00001Z" fill="#2744a3"/>
</svg>
