<svg width="20" height="26" viewBox="0 0 20 26" fill="none" xmlns="http://www.w3.org/2000/svg">
<path d="M10.0001 5.99999V9.49999L14.6667 4.83332L10.0001 0.166656V3.66666C7.52473 3.66666 5.15076 4.64999 3.40042 6.40033C1.65008 8.15067 0.666748 10.5246 0.666748 13C0.666748 14.8317 1.20341 16.535 2.11341 17.97L3.81675 16.2667C3.29175 15.2983 3.00008 14.1667 3.00008 13C3.00008 11.1435 3.73758 9.363 5.05033 8.05024C6.36309 6.73749 8.14357 5.99999 10.0001 5.99999ZM17.8867 8.02999L16.1834 9.73332C16.6967 10.7133 17.0001 11.8333 17.0001 13C17.0001 14.8565 16.2626 16.637 14.9498 17.9497C13.6371 19.2625 11.8566 20 10.0001 20V16.5L5.33341 21.1667L10.0001 25.8333V22.3333C12.4754 22.3333 14.8494 21.35 16.5997 19.5997C18.3501 17.8493 19.3334 15.4753 19.3334 13C19.3334 11.1683 18.7967 9.46499 17.8867 8.02999Z" fill="#242E4F"/>
</svg>
