<?xml version="1.0" standalone="no"?>
<!DOCTYPE svg PUBLIC "-//W3C//DTD SVG 20010904//EN"
 "http://www.w3.org/TR/2001/REC-SVG-20010904/DTD/svg10.dtd">
<svg version="1.0" xmlns="http://www.w3.org/2000/svg"
 width="859.000000pt" height="859.000000pt" viewBox="0 0 859.000000 859.000000"
 preserveAspectRatio="xMidYMid meet">
<metadata>
Created by potrace 1.14, written by Peter Selinger 2001-2017
</metadata>
<g transform="translate(0.000000,859.000000) scale(0.100000,-0.100000)"
fill="#000000" stroke="none">
<path d="M5790 7670 c-19 -5 -118 -27 -220 -50 -358 -80 -656 -169 -940 -281
l-175 -69 0 -2930 c0 -1611 3 -2932 6 -2935 4 -3 55 22 115 55 280 157 555
271 846 350 135 37 272 61 565 100 380 49 543 42 1028 -46 431 -78 575 -121
1098 -331 186 -74 341 -132 345 -128 4 4 8 1305 9 2891 l2 2885 -39 25 c-60
40 -302 147 -460 204 -194 69 -474 147 -778 214 l-250 56 -558 -1 c-308 -1
-575 -5 -594 -9z m1080 -3170 c221 -20 458 -71 660 -142 l95 -33 1 -865 c1
-476 -1 -888 -3 -917 l-5 -51 -53 18 c-84 29 -369 98 -495 119 -200 34 -395
52 -580 54 l-180 2 0 907 0 907 63 4 c143 8 390 6 497 -3z"/>
<path d="M273 7156 l-142 -71 -1 -152 c0 -84 3 -153 8 -153 4 0 72 33 152 73
l145 73 3 152 c2 119 0 152 -10 150 -7 0 -77 -33 -155 -72z"/>
<path d="M3978 7043 l-368 -186 0 -384 c0 -303 3 -384 13 -381 6 2 175 84 374
183 l362 180 0 388 c1 213 -2 387 -6 386 -5 0 -173 -84 -375 -186z"/>
<path d="M995 7051 c-55 -31 -143 -84 -195 -117 l-95 -59 -3 -150 c-2 -83 0
-164 3 -181 l6 -32 42 13 c87 26 169 65 252 119 47 31 88 62 91 69 2 7 3 99 2
204 l-3 192 -100 -58z"/>
<path d="M3128 6794 l-348 -176 0 -360 c0 -339 1 -360 18 -354 9 4 166 80 349
169 l332 162 0 368 c1 202 0 367 -1 367 -2 -1 -159 -80 -350 -176z"/>
<path d="M2465 6839 c-93 -48 -230 -111 -302 -140 l-133 -53 0 -318 c0 -175 3
-318 8 -318 16 0 394 170 519 234 l132 67 -3 257 c-2 210 -6 267 -20 310 -9
28 -20 51 -24 51 -4 -1 -83 -42 -177 -90z"/>
<path d="M1820 6821 c-36 -16 -121 -52 -190 -80 -69 -29 -156 -68 -195 -89
l-70 -37 1 -223 c1 -123 4 -225 7 -228 6 -6 105 31 274 105 76 32 162 67 191
77 l52 19 0 242 c0 134 -1 243 -2 243 -2 0 -32 -14 -68 -29z"/>
<path d="M283 6321 l-153 -76 0 -147 c0 -82 4 -148 9 -148 5 0 39 13 75 30 36
16 102 41 146 56 l80 27 0 169 c0 92 -1 167 -2 167 -2 -1 -72 -36 -155 -78z"/>
<path d="M3982 6211 l-372 -186 2 -387 c2 -212 6 -389 9 -392 3 -4 48 19 100
50 52 30 217 116 367 190 l272 135 0 389 c0 215 -1 389 -2 389 -2 -1 -171 -86
-376 -188z"/>
<path d="M969 6197 c-68 -40 -157 -93 -196 -117 l-73 -45 0 -141 c0 -78 3
-169 6 -202 l7 -61 41 21 c22 11 88 49 146 83 58 35 126 73 153 86 l47 23 0
213 c0 117 -1 213 -3 213 -2 0 -59 -33 -128 -73z"/>
<path d="M2353 5941 l-323 -161 0 -315 c0 -173 2 -315 5 -315 3 0 49 22 103
49 93 47 313 144 475 211 l77 32 -1 276 c-1 153 -4 301 -7 331 l-7 53 -322
-161z"/>
<path d="M3385 6074 c-94 -33 -203 -88 -422 -213 l-183 -104 0 -349 0 -349 23
7 c12 3 169 81 349 173 l328 166 0 348 c0 271 -3 347 -12 347 -7 -1 -44 -12
-83 -26z"/>
<path d="M1624 5888 l-251 -123 -6 -74 c-4 -41 -7 -146 -7 -234 l0 -159 28 7
c33 8 203 83 375 165 l127 61 0 239 c0 132 -4 240 -8 240 -4 0 -120 -55 -258
-122z"/>
<path d="M325 5524 c-55 -24 -121 -49 -147 -56 l-48 -12 0 -154 0 -154 28 6
c15 4 84 30 155 58 l127 51 0 148 c0 81 -3 150 -7 152 -5 2 -53 -16 -108 -39z"/>
<path d="M4276 5515 c-44 -24 -170 -82 -281 -130 -110 -47 -241 -108 -290
-134 l-90 -48 -3 -397 c-1 -219 1 -396 5 -394 5 2 173 86 376 188 l367 183 0
389 c0 213 -1 388 -2 387 -2 0 -39 -20 -82 -44z"/>
<path d="M986 5391 c-51 -27 -137 -75 -191 -107 l-97 -58 4 -187 c2 -104 7
-191 11 -195 10 -11 99 30 249 114 l137 77 1 203 c0 127 -4 202 -10 202 -5 0
-52 -22 -104 -49z"/>
<path d="M3129 5140 l-344 -171 -3 -365 c-1 -201 1 -364 6 -362 4 1 162 81
350 176 l342 173 0 359 c0 198 -2 360 -3 360 -2 0 -159 -77 -348 -170z"/>
<path d="M2601 5239 c-30 -10 -147 -63 -260 -118 -113 -54 -230 -107 -258
-117 l-53 -19 0 -317 0 -317 73 25 c39 13 188 81 330 151 l257 127 0 227 c0
258 -8 379 -24 378 -6 0 -35 -9 -65 -20z"/>
<path d="M1630 5095 l-255 -125 -8 -62 c-8 -60 -2 -406 7 -415 2 -2 30 9 62
25 33 16 146 67 252 112 107 46 196 88 198 94 2 6 3 121 2 254 l-3 243 -255
-126z"/>
<path d="M271 4659 l-141 -71 0 -139 c0 -80 4 -139 9 -139 17 0 152 51 228 86
l73 33 0 119 c0 122 -7 182 -20 182 -4 0 -71 -32 -149 -71z"/>
<path d="M4182 4631 c-95 -49 -257 -126 -360 -171 -103 -46 -193 -87 -199 -93
-10 -7 -13 -99 -13 -398 0 -214 3 -389 6 -389 20 0 584 288 657 335 l87 57 0
374 c0 206 -1 374 -2 373 -2 0 -81 -40 -176 -88z"/>
<path d="M965 4542 c-60 -32 -145 -80 -188 -106 l-79 -48 4 -188 c2 -104 6
-191 9 -195 12 -11 115 36 249 114 l135 79 3 201 c2 157 0 201 -10 201 -7 0
-62 -27 -123 -58z"/>
<path d="M3123 4299 l-343 -170 0 -365 c0 -201 3 -364 8 -362 4 2 161 81 350
176 l342 173 0 359 c0 198 -3 360 -7 359 -5 0 -162 -77 -350 -170z"/>
<path d="M2605 4404 c-38 -13 -184 -81 -322 -150 l-253 -126 0 -304 c0 -261 2
-304 15 -304 33 0 164 57 397 172 l247 123 -1 250 c0 138 -3 275 -7 306 l-6
56 -70 -23z"/>
<path d="M1735 4286 c-77 -30 -192 -76 -255 -103 l-115 -50 1 -237 c0 -130 3
-239 6 -242 3 -3 35 9 69 27 35 17 129 60 209 94 80 35 166 73 193 84 l47 22
0 229 c0 127 -3 230 -7 230 -5 -1 -71 -25 -148 -54z"/>
<path d="M278 3824 l-148 -74 0 -154 0 -155 93 43 c50 24 120 54 155 67 l62
24 -1 140 c-1 77 -4 150 -7 161 -7 21 -14 19 -154 -52z"/>
<path d="M3998 3722 c-196 -98 -364 -184 -372 -192 -14 -11 -16 -54 -15 -334
1 -176 4 -347 8 -379 l6 -57 245 124 c135 68 300 153 367 188 l123 63 0 383
c0 210 -1 382 -2 382 -2 0 -164 -80 -360 -178z"/>
<path d="M965 3693 c-66 -40 -153 -94 -192 -120 l-73 -48 1 -165 c0 -91 3
-173 7 -182 6 -16 14 -15 89 11 88 31 210 96 268 143 l35 29 0 199 c0 109 -3
201 -7 203 -5 2 -62 -29 -128 -70z"/>
<path d="M3255 3509 c-121 -62 -277 -142 -346 -178 l-126 -65 -5 -175 c-3 -97
-3 -260 0 -363 l5 -187 218 110 c209 104 409 216 457 255 l22 19 -2 349 -3
349 -220 -114z"/>
<path d="M2626 3563 c-27 -13 -110 -52 -185 -84 -75 -33 -197 -87 -272 -120
l-137 -61 -3 -181 c-2 -100 -2 -251 1 -335 l5 -152 325 163 325 163 3 309 c1
170 -1 312 -5 316 -5 4 -30 -4 -57 -18z"/>
<path d="M1765 3460 c-55 -22 -167 -76 -250 -119 l-150 -79 1 -221 c0 -121 3
-224 7 -227 10 -10 110 29 261 101 74 35 162 72 195 82 l61 18 0 243 c0 187
-3 242 -12 242 -7 0 -58 -18 -113 -40z"/>
<path d="M330 3026 c-47 -18 -111 -44 -142 -57 l-58 -24 0 -157 0 -157 48 20
c26 11 95 46 155 77 l107 56 0 101 c0 103 -8 175 -19 175 -3 -1 -44 -16 -91
-34z"/>
<path d="M3978 2853 l-368 -185 1 -326 c1 -180 4 -357 8 -394 l6 -67 115 66
c174 99 435 235 532 279 l88 39 0 388 c0 213 -3 387 -7 386 -5 0 -173 -84
-375 -186z"/>
<path d="M1015 2918 c-38 -22 -125 -74 -193 -116 l-123 -77 3 -192 c2 -105 7
-195 11 -199 9 -10 144 57 289 143 l98 58 0 213 c0 116 -3 212 -7 211 -5 0
-39 -19 -78 -41z"/>
<path d="M3132 2651 c-183 -93 -338 -173 -344 -179 -10 -10 -15 -708 -5 -718
12 -12 175 64 351 163 104 58 223 121 265 139 l76 33 3 366 c1 201 -1 365 -5
365 -5 -1 -158 -76 -341 -169z"/>
<path d="M2364 2641 c-164 -83 -307 -156 -317 -163 -17 -13 -18 -36 -18 -322
0 -169 2 -310 4 -313 3 -2 72 29 154 70 193 97 351 168 436 196 l67 23 0 313
c0 297 -3 345 -19 345 -4 0 -142 -67 -307 -149z"/>
<path d="M1745 2639 c-77 -38 -195 -92 -262 -121 l-123 -51 1 -196 c1 -108 4
-219 7 -248 l7 -52 258 126 257 126 0 244 c0 134 -1 243 -2 242 -2 0 -66 -32
-143 -70z"/>
<path d="M360 2200 c-30 -11 -94 -37 -142 -57 l-88 -37 0 -153 c0 -84 2 -153
5 -153 2 0 30 12 62 26 32 15 99 41 148 59 l90 33 3 118 c3 119 -3 184 -16
184 -4 -1 -32 -10 -62 -20z"/>
<path d="M4290 2157 c-61 -21 -655 -309 -673 -327 -10 -9 -5 -765 5 -775 8 -9
122 49 330 166 90 51 218 119 286 152 l122 59 0 374 c0 206 -1 374 -2 373 -2
0 -32 -10 -68 -22z"/>
<path d="M990 2059 c-52 -33 -139 -85 -192 -115 l-98 -55 1 -162 c0 -89 4
-181 7 -205 l7 -42 145 86 c80 47 166 97 193 110 l47 24 0 210 c0 116 -3 210
-7 210 -5 -1 -51 -28 -103 -61z"/>
<path d="M3130 1789 l-345 -170 -3 -354 -2 -354 127 63 c71 34 228 111 351
171 l222 110 0 352 c0 194 -1 353 -3 353 -1 0 -157 -77 -347 -171z"/>
<path d="M2585 1891 c-108 -29 -165 -54 -367 -163 l-188 -100 0 -313 0 -314
88 40 c48 22 195 95 327 163 l240 122 0 290 c0 249 -2 289 -15 291 -8 1 -46
-6 -85 -16z"/>
<path d="M1629 1744 c-141 -69 -257 -133 -261 -142 -10 -26 -9 -452 1 -452 15
0 164 65 349 153 l172 81 0 243 c0 134 -1 243 -3 243 -2 0 -118 -56 -258 -126z"/>
</g>
</svg>
